<svg xmlns="http://www.w3.org/2000/svg" width="300" height="100" viewBox="0 0 626 209"><path d="M106.262 51.598h-22.79c-6.784 0-12.269-5.496-12.269-12.274V16.512c0-6.774 5.484-12.27 12.27-12.27h22.789c6.773 0 12.261 5.496 12.261 12.27v22.812c0 6.778-5.488 12.274-12.261 12.274m0 0" style="stroke:none;fill-rule:nonzero;fill:#0774bb;fill-opacity:1"/><path d="M47.305 102.73h-25.64c-7.618 0-13.798-6.168-13.798-13.804V63.258c0-7.617 6.18-13.805 13.797-13.805h25.64c7.618 0 13.798 6.188 13.798 13.805v25.668c0 7.636-6.18 13.804-13.797 13.804m0 0" style="stroke:none;fill-rule:nonzero;fill:#702785;fill-opacity:1"/><path d="M44.863 155.988h-15.66a8.44 8.44 0 0 1-8.437-8.441v-15.664c0-4.676 3.78-8.453 8.437-8.453h15.66c4.657 0 8.434 3.777 8.434 8.453v15.664a8.435 8.435 0 0 1-8.434 8.441m0 0" style="stroke:none;fill-rule:nonzero;fill:#ad2d91;fill-opacity:1"/><path d="M86.906 205.512H68.391c-5.504 0-9.965-4.457-9.965-9.973v-18.531c0-5.52 4.46-9.977 9.965-9.977h18.515a9.965 9.965 0 0 1 9.969 9.977v18.531a9.964 9.964 0 0 1-9.969 9.973M154.766 60.93h-12.832c-3.813 0-6.899-3.098-6.899-6.903v-12.82c0-3.816 3.086-6.914 6.899-6.914h12.832c3.808 0 6.89 3.098 6.89 6.914v12.82c0 3.805-3.082 6.903-6.89 6.903m0 0" style="stroke:none;fill-rule:nonzero;fill:#ed3494;fill-opacity:1"/><path d="M435.504 69.5c4.078 0 7.379-3.3 7.379-7.395 0-4.085-3.301-7.402-7.38-7.402-4.081 0-7.41 3.317-7.41 7.402 0 4.094 3.329 7.395 7.41 7.395M165.64 148.426c-1.14 1.715-3 2.574-5.003 2.574-1.14 0-2.426-.29-3.43-.86-1.57-1.003-2.715-3.144-2.715-5.292 0-1 .285-2.004.86-2.86l17.148-27.031-17.148-27.031c-.575-.856-.86-2-.86-3.004 0-2 1.004-4.149 2.863-5.149.997-.57 2-.859 3.141-.859 2 0 4.004.86 5.145 2.578l14.004 22.168 14.148-22.168c1.144-1.719 3.144-2.578 5.144-2.578 1.145 0 2.149.29 3.141.86 1.863 1 2.86 3.148 2.86 5.148 0 1.004-.282 2.148-.856 3.004l-17.148 27.031 17.148 27.031a5.13 5.13 0 0 1 .856 2.86c0 2.148-1.141 4.289-2.711 5.293-1 .57-2.29.859-3.43.859-2 0-3.86-.86-5.004-2.574l-14.148-22.028ZM251.363 90.219c-13.722 0-24.582 10.867-24.582 24.738 0 13.73 10.86 24.602 24.582 24.602 13.864 0 24.723-10.871 24.723-24.602 0-13.871-10.86-24.738-24.723-24.738m-24.582-2.864c6.43-5.863 15.149-9.44 24.582-9.44 20.582 0 37.016 16.452 37.016 37.042 0 20.316-16.434 36.758-37.016 36.758-9.433 0-18.152-3.578-24.582-9.438v31.606c0 3.148-2.855 5.863-6.14 5.863-3.004 0-6.004-2.715-6.004-5.863V84.352c0-3.145 3-5.864 6.004-5.864 3.285 0 6.14 2.719 6.14 5.864ZM393.008 108.234v37.043c0 3.149-3.004 5.864-6.004 5.864-3.29 0-6.145-2.715-6.145-5.864V84.352c0-3.149 2.856-5.864 6.145-5.864 2.86 0 5.86 2.57 6.004 5.578 5-3.863 11.433-6.007 18.433-6.152 3.86 0 6.715 3.004 6.715 6.008 0 3.289-2.996 6.293-6.715 6.293-9.574.285-18.433 3.719-18.433 18.02M435.59 78.488c-3.285 0-6.145 2.715-6.145 5.864v60.925c0 3.149 2.86 5.864 6.145 5.864 3.004 0 6-2.715 6-5.864V84.352c0-3.149-2.996-5.864-6-5.864M488.61 139.414c13.718 0 24.585-10.867 24.585-24.742 0-13.73-10.867-24.598-24.586-24.598-13.863 0-24.718 10.867-24.718 24.598 0 13.875 10.855 24.742 24.718 24.742m24.585-55.062c0-3.149 2.852-5.864 6.14-5.864 3.005 0 6.005 2.715 6.005 5.864v60.925c0 3.149-3 5.864-6.004 5.864-3.29 0-6.14-2.715-6.14-5.864v-3.004c-6.575 5.864-15.153 9.438-24.587 9.438-20.578 0-37.015-16.441-37.015-37.04 0-20.304 16.437-36.757 37.015-36.757 9.434 0 18.012 3.578 24.586 9.441ZM587.219 108.95c0-10.153-8.86-19.02-19.008-19.02-9.86 0-19.008 4.004-19.008 18.304v37.043c0 3.149-3 5.864-6.004 5.864-3.289 0-6.144-2.715-6.144-5.864V84.352c0-3.149 2.855-5.864 6.144-5.864 2.86 0 5.86 2.57 6.004 5.578 5.149-4.007 11.719-6.152 18.86-6.152 16.582 0 31.3 13.02 31.3 29.32v38.043c0 3.149-2.996 5.864-6 5.864-3.285 0-6.144-2.715-6.144-5.864ZM114.387 90.074c11.082 0 20.289 7.117 23.433 17.035H90.81c3.144-9.918 12.363-17.035 23.578-17.035m36.726 22.598c-.285-18.738-17.004-34.758-36.726-34.758-20.582 0-37.012 16.453-37.012 36.758 0 20.598 16.43 37.039 37.012 37.039 9.86 0 19.011-3.86 25.582-10.438 1.285-1.144 2.144-2.859 2.144-4.578 0-3.285-2.863-6.148-6.148-6.148-1.856 0-3.57 1.144-4.856 2.433-4.148 4.43-10.293 6.434-16.722 6.434-12.29 0-22.285-8.43-24.438-20.152h55.164c.043 0 .078-.016.117-.016h.168c.102-.008.207-.043.309-.058.211-.032.422-.063.625-.126 2.606-.699 4.781-3.19 4.781-6.39M333.848 90.074c11.078 0 20.289 7.117 23.433 17.035h-47.015c3.144-9.918 12.363-17.035 23.582-17.035m36.726 22.598c-.285-18.738-17.008-34.758-36.726-34.758-20.582 0-37.02 16.453-37.02 36.758 0 20.598 16.438 37.039 37.02 37.039 9.859 0 19.007-3.86 25.578-10.438 1.289-1.144 2.144-2.859 2.144-4.578 0-3.285-2.855-6.148-6.14-6.148-1.864 0-3.578 1.144-4.864 2.433-4.144 4.43-10.293 6.434-16.718 6.434-12.29 0-22.29-8.43-24.438-20.152h55.07c.036 0 .079-.016.114-.016h.261c.165-.012.329-.062.489-.098.086-.015.168-.023.254-.046 2.687-.622 4.976-3.153 4.976-6.43M620.05 144.648c0 2.965-2.542 5.372-5.667 5.372-3.059 0-5.547-2.407-5.547-5.372 0-2.96 2.488-5.37 5.547-5.37 3.125 0 5.668 2.41 5.668 5.37M614.384 138c-3.715 0-6.856 3.043-6.856 6.648 0 3.606 3.141 6.653 6.856 6.653 3.789 0 6.87-2.985 6.87-6.653s-3.081-6.648-6.87-6.648m0 0" style="stroke:none;fill-rule:nonzero;fill:#004e99;fill-opacity:1"/><path d="M615.324 143.105c0 .012-.008 1.172-1.078 1.172h-.582v-2.297h.582c1.07 0 1.078 1.079 1.078 1.125m.176 2.168c.746-.453 1.188-1.25 1.188-2.168 0-1.39-1.06-2.437-2.461-2.437h-.989c-.543 0-.933.422-.933 1.008v6.25c0 .36.308.656.687.656a.65.65 0 0 0 .672-.656v-2.32h.512l1.222 2.609a.64.64 0 0 0 .582.367c.11 0 .227-.027.31-.07a.61.61 0 0 0 .398-.57c0-.079 0-.169-.055-.282Zm0 0" style="stroke:none;fill-rule:nonzero;fill:#004e99;fill-opacity:1"/></svg>